<svg width="335" height="337" viewBox="0 0 335 337" fill="none" xmlns="http://www.w3.org/2000/svg">
<path d="M80.0181 206.867C76.1642 206.867 73.1667 209.858 73.1667 213.704C73.1667 217.549 76.1642 220.54 80.0181 220.54C83.8719 220.54 86.8694 217.549 86.8694 213.704C86.8694 209.858 83.8719 206.867 80.0181 206.867ZM80.0181 218.19C77.6629 218.19 75.736 216.267 75.736 213.917C75.736 211.567 77.6629 209.644 80.0181 209.644C82.3732 209.644 84.3001 211.567 84.3001 213.917C84.3001 216.267 82.5873 218.19 80.0181 218.19ZM85.7989 246.392L87.2976 245.751C103.141 239.769 108.922 229.727 111.063 222.25C112.99 214.986 112.134 209.003 111.92 207.721L111.491 207.294L111.277 206.226C110.849 204.73 108.494 198.962 102.927 193.834C97.3605 188.493 87.2976 182.938 70.8116 185.929L69.3128 186.143L69.9551 187.638C70.1692 187.852 72.9526 194.262 79.1616 200.03C84.3001 204.944 92.6502 210.072 104.212 209.217C94.3631 214.345 89.6528 222.463 87.7258 229.086C85.1566 237.419 85.7989 244.683 85.7989 245.11V246.392ZM80.6604 198.107C76.5924 194.262 74.0231 189.989 72.7385 187.852C84.3002 186.143 93.9349 188.707 101.214 195.543C105.497 199.603 107.638 204.089 108.708 206.012C98.0029 208.149 88.7963 205.585 80.6604 198.107ZM89.6528 229.727C92.8643 219.686 99.5016 212.849 109.35 209.431C109.565 211.567 109.993 216.481 108.494 222.036C105.711 231.65 98.8593 238.914 87.7258 243.401C87.7258 240.623 87.9399 235.282 89.6528 229.727ZM97.1464 167.342L116.844 186.997L124.98 165.846L119.627 145.122L97.1464 167.342ZM142.751 303.436C142.751 303.436 138.255 297.454 139.539 290.831C139.539 290.404 140.396 286.558 139.325 282.071C138.255 277.798 135.043 271.816 126.693 268.825C126.265 268.611 122.625 267.116 117.7 267.116C112.776 267.116 105.925 268.611 99.9298 276.089C99.9298 276.089 96.0759 281.217 87.7258 279.294C87.5117 279.294 83.4437 278.653 80.4463 281.644C77.877 284.422 77.0206 288.908 78.3052 295.318C81.0886 309.632 95.6477 318.605 96.9323 319.46C97.5746 319.887 102.071 323.306 108.066 325.228C111.063 326.297 113.847 326.724 116.416 326.724C120.912 326.724 124.98 325.228 128.192 322.237C130.761 322.237 141.038 322.024 144.678 316.042C146.176 313.05 145.748 308.777 142.751 303.436ZM142.323 314.973C139.967 318.819 133.544 319.674 130.119 319.887C131.403 318.178 132.688 315.187 132.688 311.555C132.688 306.641 129.904 301.941 124.766 297.24C124.766 297.24 117.272 290.617 117.272 284.849C117.272 283.14 118.129 281.644 119.413 280.362C119.842 279.935 120.056 279.294 119.627 278.653C119.199 278.226 118.557 278.012 117.915 278.439C115.988 280.149 114.917 282.285 114.917 284.635C114.917 291.472 122.839 298.522 123.267 298.95C127.978 303.009 130.333 307.282 130.333 311.555C130.333 316.683 127.121 319.887 126.907 320.101L126.693 320.315C115.559 330.783 98.2169 317.751 98.0028 317.537H97.7887C97.5746 317.537 83.0155 308.564 80.2322 294.89C79.1616 289.335 79.5898 285.276 81.7309 283.353C83.2296 281.858 85.1566 281.644 86.2271 281.644C86.6553 281.644 86.8694 281.644 87.0835 281.644C87.7258 281.858 88.154 281.858 88.7963 281.858C90.081 282.499 96.9323 285.49 103.784 285.49C105.925 285.49 108.28 285.062 110.207 284.208C110.849 283.994 111.063 283.14 110.849 282.712C110.635 282.071 109.779 281.858 109.35 282.071C105.068 283.994 99.0734 282.712 95.0054 281.43C99.5016 280.362 101.643 277.585 102.071 277.157C112.134 264.339 125.622 270.321 126.051 270.748C140.396 275.876 137.826 289.549 137.612 290.19C136.328 297.454 140.824 303.65 141.252 304.504C143.179 309.205 143.821 312.623 142.323 314.973ZM193.494 71.1997L178.934 85.5142V97.4785L193.279 84.2323V71.1997H193.494ZM193.494 126.962V88.5053L179.149 101.752V119.912L193.494 126.962ZM119.413 188.493L148.532 202.38L160.95 173.11L154.955 167.128L155.169 166.915L175.081 147.045L133.758 150.891L119.413 188.493ZM156.239 108.161L176.151 118.203L175.937 88.5053L156.239 108.161ZM178.292 143.84L192.423 129.74L159.665 113.289L163.091 145.336L178.292 143.84ZM71.8821 119.484L70.5974 120.339L71.8821 121.194C72.0962 121.407 76.1642 124.398 82.3732 126.748C91.3656 129.953 104.426 131.662 117.058 120.98L117.272 120.766C117.486 120.553 123.481 116.28 128.192 108.802C132.474 101.752 136.328 90.6418 130.333 77.1819L129.904 76.1136L128.834 76.7546C128.62 76.9682 122.625 80.173 117.915 87.2234C116.416 89.5735 114.917 92.5646 113.847 96.1967C111.491 89.7872 107.209 84.446 101.643 80.6003C99.2875 79.1047 96.7182 77.6092 93.9349 76.7546L92.6502 76.3273L92.222 77.6092C92.222 77.8228 90.7233 83.1641 91.5797 90.2145C92.4361 96.6239 95.6477 105.384 105.497 112.434C97.5747 109.443 85.5848 108.802 71.8821 119.484ZM119.627 88.5053C122.839 83.805 126.693 80.8139 128.62 79.532C132.474 89.1462 131.831 98.7604 126.265 107.734C123.053 112.861 119.199 116.493 117.272 117.989C116.844 116.707 116.416 115.639 116.202 114.357C116.416 112.007 116.63 107.947 115.559 103.033C115.345 102.392 115.345 101.752 115.131 101.111C115.774 96.4103 117.272 92.351 119.627 88.5053ZM93.9349 89.5735C93.2925 84.8733 93.7208 81.0276 94.149 79.1047C96.29 79.9593 98.4311 81.0276 100.144 82.3095C106.567 86.5824 110.849 92.9919 112.776 101.111C112.348 104.956 112.562 109.229 113.632 114.143C111.491 113.075 109.565 112.007 107.852 110.938C99.9298 105.597 95.2195 98.3331 93.9349 89.5735ZM105.925 114.784C110.207 116.493 113.418 118.63 114.917 119.912C103.355 129.312 91.3656 127.817 83.2296 124.612C79.3757 123.116 76.3783 121.407 74.6654 120.339C87.5117 110.938 98.6452 112.007 105.925 114.784ZM14.7161 178.238C16.2148 181.229 20.0687 182.297 26.0637 181.87C26.4919 181.87 32.2727 181.87 36.7689 186.357C36.7689 186.357 39.3382 188.92 44.0485 190.202C48.1165 191.27 54.9678 191.271 63.3179 185.929C63.3179 185.929 63.9602 185.502 65.0307 184.861C66.5295 183.793 68.6705 181.656 70.8116 178.879C73.809 174.606 77.0206 167.555 74.4513 158.369C74.4513 158.369 72.0962 151.959 75.3078 147.259C75.3078 147.045 77.6629 143.627 75.9501 139.995C74.6654 137.217 71.668 135.508 66.9577 134.653C66.7436 133.799 66.3154 133.158 65.673 132.517C61.1768 127.817 50.2575 132.517 49.8293 132.731C46.6177 134.226 44.0485 135.508 41.6933 137.004C40.4087 137.217 35.2702 138.286 30.5599 141.277C23.0662 145.55 19.8546 151.745 21.1393 159.223C21.1393 159.223 21.3534 160.078 21.7816 161.146C19.2123 163.282 11.7186 172.683 14.7161 178.238ZM22.638 163.069C24.779 166.487 29.2752 170.76 38.2676 170.547C38.4817 170.547 51.328 170.333 54.3255 176.315C54.5396 176.956 55.396 177.17 55.8242 176.742C55.8242 176.742 56.0383 176.742 56.0383 176.529C56.4665 176.101 56.6806 175.46 56.2524 175.033C52.3985 167.983 38.4817 167.983 38.0535 167.983C28.847 168.196 25.2072 163.282 23.7085 160.505C23.7085 160.505 23.7085 160.505 23.7085 160.291C23.2803 159.223 23.0662 158.369 23.0662 158.369C21.9957 151.959 24.779 146.831 31.4163 142.986C32.915 142.131 34.6279 141.277 35.9125 140.849C33.5573 143.199 32.0586 145.336 31.8445 147.686C31.4163 151.104 33.3432 153.241 33.7714 153.668C38.0535 158.155 48.1165 152.6 49.4011 151.745C51.328 150.25 53.4691 148.327 52.8268 146.404C52.1844 144.481 48.9729 144.268 47.9024 144.268C47.26 144.268 46.8318 144.909 46.8318 145.55C46.8318 146.191 47.4741 146.618 48.1164 146.618C49.187 146.618 50.2575 146.831 50.6857 147.045C50.6857 147.259 50.2575 148.113 48.1164 149.609C45.5472 151.104 38.0535 154.523 35.4843 151.745H35.2702C35.2702 151.745 33.5573 150.25 33.9855 147.9C34.1996 145.763 36.1266 142.559 42.1215 138.926C42.1215 138.926 42.3356 138.926 42.3356 138.713C44.4767 137.431 47.0459 136.149 50.2575 134.653C53.0409 133.372 60.5345 131.021 63.532 134.013C63.9602 134.44 64.1743 135.081 64.3884 135.722C65.0307 138.072 64.6025 142.559 60.5345 151.104C60.3204 151.745 60.5345 152.386 61.1768 152.6C61.605 152.814 62.0333 152.814 62.4615 152.386C62.6756 152.173 62.6756 152.173 62.8897 151.959C66.1012 145.336 67.3859 140.422 67.1718 136.79C70.5975 137.431 72.7385 138.926 73.5949 140.636C74.6654 142.986 73.1667 145.336 73.1667 145.55C69.3128 151.104 71.668 158.155 72.0962 158.796C74.0231 165.419 72.9526 171.615 68.8846 177.17C65.8871 181.443 62.0333 183.793 62.0333 183.793C47.4741 193.407 38.9099 185.075 38.4817 184.647C33.1291 179.092 26.0637 179.306 25.8496 179.306C22.4239 179.52 17.9277 179.306 16.6431 176.956C14.9302 173.751 19.6405 166.701 22.638 163.069ZM110.849 301.3C109.136 300.445 106.995 299.591 105.711 300.872C104.426 302.154 105.711 304.505 105.925 305.145C106.139 305.786 106.995 306 107.638 305.573C108.28 305.359 108.494 304.505 108.066 303.864C107.852 303.436 107.638 302.795 107.423 302.368C107.852 302.368 108.28 302.582 109.565 303.223C111.92 304.718 116.202 308.137 115.345 310.487V310.7C115.345 310.7 114.917 312.196 113.418 312.623C111.706 313.264 107.638 313.264 99.0734 306.427C97.3605 304.932 92.222 300.018 93.2926 297.027C93.9349 295.318 96.5041 294.249 101 294.036C101.643 294.036 102.071 293.395 102.071 292.754C102.071 292.113 101.429 291.686 100.786 291.686C95.0054 292.113 91.7938 293.608 90.9374 296.386C89.4387 301.3 96.7182 307.496 97.5747 308.35C103.57 313.051 108.28 315.187 111.92 315.187C112.776 315.187 113.418 314.973 114.275 314.76C116.844 313.905 117.486 311.555 117.7 311.128C119.199 306.641 111.706 301.727 110.849 301.3ZM58.3935 50.903C62.4615 54.7487 69.741 59.449 80.2322 59.449C84.3001 59.449 88.7964 58.8081 93.2926 57.3125L94.7913 56.8852L94.149 55.6033C93.9349 55.3897 91.3656 51.3303 86.4412 47.0574C79.804 41.5025 72.3103 38.5114 64.8166 38.5114C60.7486 38.5114 56.6806 39.366 52.6127 40.8615L51.5421 41.2888L51.9703 42.3571C51.9703 42.5707 54.1114 46.8437 58.3935 50.903ZM64.8166 40.8615C79.1616 40.8615 88.5822 51.9713 91.3656 55.6033C87.5117 56.6716 83.8719 57.0989 80.4463 57.0989C72.5244 57.0989 65.8871 54.5351 60.3204 49.1939C57.5371 46.6301 55.6101 43.8526 54.7537 42.3571C57.9653 41.2888 61.3909 40.8615 64.8166 40.8615ZM291.554 139.354C287.271 134.867 275.924 138.499 272.712 139.567C271.856 138.713 271.214 138.286 271.214 138.286C264.79 134.44 257.725 135.508 251.088 140.849C246.806 144.481 243.808 148.754 243.166 149.823C241.025 151.532 238.67 153.455 236.315 156.018C235.886 156.446 227.75 164.778 230.534 170.76C230.962 171.401 231.39 172.042 232.032 172.683C231.176 177.383 231.818 180.802 233.959 182.938C236.743 185.716 240.811 184.861 241.025 184.861C246.592 183.579 251.73 187.852 251.73 187.852C256.654 191.484 261.365 192.552 265.647 192.552C268.002 192.552 270.357 192.125 272.284 191.698C277.851 190.202 281.491 187.425 281.705 187.425C289.841 181.443 291.982 175.247 292.624 170.974C293.052 166.274 291.768 163.069 291.554 163.069C288.77 157.3 290.911 151.745 291.125 151.318C293.695 145.763 293.909 141.918 291.554 139.354ZM288.984 150.464C288.77 150.677 286.201 157.087 289.412 164.137C289.627 164.564 294.337 175.46 280.206 185.716C279.992 185.716 266.503 195.971 253.229 186.357C252.586 185.929 247.02 181.229 240.382 182.725C240.168 182.725 237.385 183.152 235.672 181.443C234.388 180.161 233.959 177.597 234.388 174.179C236.743 175.247 239.954 175.674 244.022 175.674C245.735 175.674 247.876 175.674 250.017 175.46C250.66 175.46 251.088 174.82 251.088 174.179C251.088 173.538 250.445 173.11 249.803 173.11C240.597 173.965 236.1 172.897 234.173 171.401C233.531 170.974 233.103 170.333 232.889 169.906C231.176 166.274 236.1 160.078 238.241 157.941C240.811 155.377 242.952 153.455 244.879 151.959L245.093 151.745C250.66 147.472 254.299 146.831 256.44 147.259C258.796 147.686 259.652 149.823 259.652 149.823V150.036C261.365 153.241 255.37 159.223 253.229 160.932C251.088 162.428 250.231 162.428 250.017 162.428C249.803 162.001 250.231 160.719 250.445 159.864C250.66 159.223 250.445 158.582 249.803 158.369C249.161 158.155 248.518 158.369 248.304 159.009C247.876 159.864 246.806 163.069 248.518 164.351C250.017 165.633 252.586 164.351 254.728 162.855C255.798 162.001 264.576 154.523 261.793 148.968C261.579 148.541 260.294 145.763 256.869 145.122C254.728 144.695 252.158 145.122 249.161 146.618C250.231 145.55 251.302 144.268 252.801 143.199C258.796 138.286 264.576 137.645 270.143 140.849C270.143 140.849 278.707 146.191 273.783 158.155C273.569 158.796 268.644 171.615 273.997 177.597C274.211 177.811 274.639 178.024 274.853 178.024C275.067 178.024 275.496 178.024 275.71 177.811C276.138 177.383 276.352 176.529 275.924 176.101C271.642 171.187 276.138 159.223 276.138 159.009C279.564 150.677 277.209 145.122 274.639 141.918C279.135 140.422 287.271 138.499 290.055 141.49C291.768 142.986 290.483 147.259 288.984 150.464ZM102.285 265.62C109.779 265.62 116.63 263.057 123.053 258.143L124.124 257.288L123.267 256.434C122.839 256.006 114.275 246.819 100.144 246.819C92.8643 246.819 85.3707 249.383 77.877 254.511C76.8065 254.724 70.1692 256.647 63.532 261.347C56.8947 266.261 49.187 275.021 49.6152 289.976V291.258L50.8998 291.045C51.1139 291.045 57.9653 290.19 64.8166 285.49C70.8116 281.217 78.0911 273.098 79.3757 257.929C83.0155 260.493 91.5797 265.62 102.285 265.62ZM100.144 249.169C110.635 249.169 117.915 254.938 120.484 257.074C114.917 261.134 108.708 263.27 102.285 263.27C92.0079 263.27 83.4437 257.929 80.2322 255.579C86.8694 251.306 93.5067 249.169 100.144 249.169ZM63.7461 283.353C59.0358 286.558 54.3255 287.84 52.1844 288.267C52.1844 277.798 56.4665 269.252 65.0307 263.057C69.9551 259.425 74.8795 257.715 77.2347 256.861C76.3783 268.825 71.8821 277.798 63.7461 283.353ZM279.564 207.508L278.279 206.653C278.065 206.44 273.783 203.662 267.574 201.739C258.796 199.176 246.163 198.321 234.388 208.576C233.959 206.653 232.889 203.662 230.962 200.244C227.964 195.116 222.398 188.493 211.907 185.288C207.839 184.006 203.128 183.365 198.204 183.365H196.705L197.133 184.861C197.133 185.075 198.632 189.989 202.058 195.543C206.768 203.021 213.405 208.149 220.899 210.499C223.896 211.354 227.108 211.781 230.32 211.994C228.179 214.131 225.181 217.549 222.612 222.25C218.758 229.514 215.546 240.837 222.398 254.083L223.04 255.152L224.111 254.511C224.325 254.297 230.105 250.879 234.388 243.615C238.027 237.419 240.811 227.591 236.1 214.131C238.027 215.199 240.597 216.695 244.022 217.549C252.158 219.899 264.576 220.327 278.279 208.576L279.564 207.508ZM221.755 208.362C207.624 204.089 201.63 190.416 199.917 185.716C203.985 185.716 207.839 186.357 211.264 187.425C218.972 189.775 224.967 194.475 228.821 201.312C230.748 204.73 231.818 207.935 232.247 209.644C228.607 209.858 224.967 209.431 221.755 208.362ZM232.461 242.333C229.677 247.247 225.823 250.451 224.111 251.733C219.614 242.333 219.828 232.718 224.753 223.532C227.536 218.19 231.176 214.558 233.103 212.635C237.599 223.745 237.385 233.787 232.461 242.333ZM244.879 215.413C240.382 214.131 237.171 211.994 235.458 210.926C246.377 200.885 258.367 201.739 266.717 204.303C270.785 205.585 273.783 207.081 275.496 208.149C263.292 217.977 252.158 217.549 244.879 215.413ZM206.126 218.19C206.126 220.754 208.267 222.891 210.836 222.891C213.405 222.891 215.546 220.754 215.546 218.19C215.546 215.626 213.405 213.49 210.836 213.49C208.053 213.49 206.126 215.626 206.126 218.19ZM212.977 218.19C212.977 219.472 211.907 220.327 210.836 220.327C209.551 220.327 208.481 219.259 208.481 218.19C208.481 217.122 209.551 216.054 210.836 216.054C212.121 215.84 212.977 216.908 212.977 218.19ZM238.456 249.81C238.456 255.579 243.166 260.065 248.733 260.065C254.513 260.065 259.01 255.365 259.01 249.81C259.01 244.042 254.299 239.555 248.733 239.555C243.166 239.555 238.456 244.042 238.456 249.81ZM256.654 249.81C256.654 254.083 253.229 257.715 248.733 257.715C244.45 257.715 240.811 254.297 240.811 249.81C240.811 245.537 244.236 241.905 248.733 241.905C253.015 241.905 256.654 245.537 256.654 249.81ZM72.5244 248.528C75.736 243.401 75.9501 236.778 73.3808 228.659C73.3808 228.445 71.8821 223.959 68.4564 219.899C65.2448 216.054 59.464 212.208 50.2575 214.558C50.2575 214.558 39.9805 217.977 29.9175 214.345C29.7034 214.345 29.7034 214.345 29.4893 214.345C24.9931 211.567 20.711 212.849 20.711 212.849C12.5751 215.413 13.0033 224.386 14.2879 228.659C14.2879 228.873 14.502 229.086 14.7161 229.3C14.2879 229.727 14.0738 230.155 14.0738 230.155V230.368C12.5751 234.428 12.5751 238.06 14.2879 241.051C13.4315 252.161 19.8546 255.793 20.4969 256.22C21.3534 256.647 21.9957 257.074 22.8521 257.288C22.8521 257.288 22.8521 257.288 22.8521 257.502C22.8521 257.502 20.9251 265.834 28.6329 270.748C28.6329 270.748 30.774 272.03 33.7714 271.816C36.5548 271.816 40.1946 270.748 43.4061 266.689C43.4061 266.689 49.8293 258.997 59.6781 256.861C60.1063 256.647 68.2423 255.365 72.5244 248.528ZM50.8998 216.908C66.1012 212.849 70.8116 228.659 71.0257 229.3C71.4539 230.582 71.668 231.864 71.8821 232.932V233.146C71.668 236.778 70.1692 239.555 67.8141 241.264C63.3179 244.683 56.2524 242.974 56.2524 242.974C45.3331 240.41 36.7689 223.959 36.3407 223.104C35.2702 220.754 34.1996 219.045 33.1291 217.549C42.3356 219.686 50.2575 217.336 50.8998 216.908ZM21.3534 254.083C21.1393 253.87 16.6431 251.52 16.429 244.042C19.6405 247.033 23.4944 247.888 23.7085 247.888C24.3508 248.101 24.9931 247.674 25.2072 247.033C25.4213 246.392 24.9931 245.751 24.3508 245.537C24.3508 245.537 18.7841 244.255 16.429 240.196C16.429 240.196 16.4289 239.982 16.2148 239.982C14.9302 237.632 14.9302 234.641 16.0007 231.009C16.2148 230.582 17.4995 228.873 19.6405 228.232C21.5675 227.805 23.7085 228.232 26.0637 229.727C26.9201 230.368 36.3407 238.06 32.0586 250.879C32.0586 250.879 30.9881 253.87 28.2047 254.938C26.4919 256.006 24.1367 255.579 21.3534 254.083ZM58.8217 254.511C52.8268 255.793 48.3306 258.784 45.119 261.347C46.1895 258.356 46.8318 255.152 45.7613 251.947C45.5472 251.306 44.9049 251.092 44.2626 251.306C43.6203 251.52 43.4061 252.161 43.6203 252.801C45.7613 258.57 39.7664 266.475 38.91 267.543C34.1996 270.962 29.9175 268.825 29.7034 268.611C23.4944 264.552 24.779 258.143 24.9931 257.929C25.4213 257.929 26.0637 258.143 26.4919 258.143C27.5624 258.143 28.4188 257.929 29.2752 257.715C33.1291 256.22 34.4137 252.374 34.4137 252.16C36.983 244.469 35.0561 238.273 32.915 234.641C30.5599 230.582 27.7765 228.445 27.5624 228.232C24.5649 226.309 21.7816 225.668 19.2123 226.309C18.1418 226.523 17.0713 227.164 16.429 227.591C16.0007 225.454 14.2879 217.336 21.3534 215.199C21.7816 215.199 29.4893 212.849 34.4137 224.386C34.842 225.027 43.6203 242.76 55.8242 245.537C56.0383 245.537 57.7512 245.965 60.1063 245.965C62.8897 245.965 66.3154 245.537 69.3128 243.401C70.8116 242.333 71.8821 241.051 72.7385 239.555C72.7385 242.546 71.8821 245.11 70.3833 247.46C66.7436 253.442 59.0358 254.511 58.8217 254.511ZM254.942 82.9504C251.73 88.078 251.516 94.7011 254.085 102.82C254.085 103.033 255.584 107.52 259.01 111.579C261.579 114.57 265.647 117.562 271.856 117.562C273.569 117.562 275.282 117.348 277.209 116.921C277.209 116.921 287.486 113.502 297.548 117.134C297.548 117.134 297.763 117.134 297.977 117.134C300.332 118.63 302.687 119.057 304.4 119.057C305.899 119.057 306.969 118.843 306.969 118.63C315.105 116.066 314.677 107.093 313.392 102.82C313.392 102.606 313.178 102.392 312.964 102.179C313.392 101.752 313.606 101.324 313.606 101.324V101.111C315.105 97.0513 315.105 93.4192 313.392 90.4281C314.249 79.3184 307.826 75.6863 307.183 75.259C306.327 74.8317 305.684 74.4045 304.828 74.1908C304.828 74.1908 304.828 74.1908 304.828 73.9771C304.828 73.9771 306.755 65.6448 299.047 60.7309C299.047 60.7309 291.125 56.2443 284.274 64.5766C284.274 64.5766 277.851 72.268 268.002 74.4044C267.36 74.8317 259.224 76.1136 254.942 82.9504ZM276.352 114.357C261.151 118.416 256.44 102.606 256.226 101.965C255.798 100.683 255.584 99.4014 255.37 98.3331V98.1195C255.584 94.4875 257.083 91.71 259.438 90.0008C263.934 86.5825 270.999 88.2916 270.999 88.2916C281.919 90.8554 290.483 107.306 290.911 108.161C291.982 110.511 293.052 112.22 294.123 113.716C285.13 111.579 277.209 114.143 276.352 114.357ZM305.899 77.3955C305.899 77.3955 310.395 79.7457 310.823 87.437C307.611 84.446 303.758 83.5914 303.543 83.5914C302.901 83.3777 302.259 83.805 302.045 84.4459C301.831 85.0869 302.259 85.7279 302.901 85.9415C302.901 85.9415 308.468 87.2234 310.823 91.2827C310.823 91.2827 310.823 91.4964 311.037 91.4964C312.322 93.8465 312.322 96.8376 311.251 100.47C311.037 100.897 309.752 102.606 307.611 103.247C305.684 103.674 303.543 103.247 301.188 101.752C300.332 101.111 290.911 93.4192 295.193 80.6003C295.193 80.6003 296.264 77.6092 299.047 76.5409C300.974 75.4727 303.329 75.9 305.899 77.3955ZM268.43 76.9682C274.425 75.6863 278.921 72.6953 282.133 70.1315C281.062 73.1226 280.42 76.3273 281.491 79.532C281.705 79.9593 282.133 80.3866 282.561 80.3866C282.775 80.3866 282.775 80.3866 282.989 80.3866C283.632 80.173 283.846 79.532 283.632 78.8911C281.491 73.1226 287.486 65.2175 288.342 64.1493C293.052 60.7309 297.334 62.8674 297.548 63.081C303.758 67.1404 302.473 73.5499 302.259 73.7635C300.76 73.5499 299.261 73.5499 297.977 74.1908C294.123 75.6863 292.838 79.532 292.838 79.7457C290.269 87.437 292.196 93.6329 294.337 97.2649C296.692 101.324 299.475 103.461 299.69 103.674C301.831 105.17 303.972 105.811 306.113 105.811C306.755 105.811 307.397 105.811 308.04 105.597C309.11 105.384 310.181 104.743 310.823 104.315C311.251 106.452 312.964 114.57 305.899 116.707C305.899 116.707 297.763 119.271 292.838 107.52C292.41 106.879 283.632 89.1462 271.428 86.3688C270.999 86.3688 263.292 84.6596 257.939 88.5053C256.44 89.5735 255.37 90.8554 254.513 92.351C254.513 89.3599 255.37 86.7961 256.869 84.4459C260.722 78.0365 268.43 76.9682 268.43 76.9682ZM23.0662 137.858C33.1291 137.004 41.2651 132.303 47.26 123.757L47.9024 122.689L46.8318 122.048C46.6177 121.835 38.9099 117.134 28.2047 117.989C18.7841 118.843 10.2199 123.757 2.94035 132.731L1.86983 134.013L3.15446 134.653C3.58266 134.867 12.361 138.713 23.0662 137.858ZM28.2047 120.339C35.9125 119.698 42.1215 122.262 44.4767 123.33C38.9099 130.594 31.6304 134.653 22.8521 135.508C15.1443 136.149 8.50707 134.226 5.50961 133.158C12.361 125.467 19.8546 121.194 28.2047 120.339ZM186.642 25.0515C186.642 25.0515 190.924 30.82 189.854 37.2295C189.854 37.6568 188.997 41.2888 190.068 45.7755C191.138 50.0485 194.136 55.6033 202.486 58.8081C202.914 59.0217 206.554 60.5173 211.264 60.5173C215.975 60.5173 222.826 59.0217 228.607 51.7576C228.821 51.544 232.247 46.8437 240.382 48.5529C240.597 48.5529 244.665 49.1939 247.448 46.2028C250.017 43.639 250.66 39.1523 249.375 32.7429C246.592 18.8557 232.461 10.0961 231.39 9.24148C230.748 8.81418 226.466 5.60944 220.685 3.6866C212.763 0.909162 205.912 1.97741 200.987 6.67769C198.632 6.67769 188.355 6.89134 184.929 12.6599C183.217 15.8646 183.645 19.9239 186.642 25.0515ZM187.07 13.7281C189.211 10.0961 195.421 9.24148 199.06 8.81418C197.776 10.737 196.491 13.5145 196.491 17.1465C196.491 21.8468 199.06 26.5471 204.199 31.0337C204.199 31.0337 211.478 37.4432 211.478 43.2117C211.478 44.9209 210.836 46.4164 209.337 47.4847C208.909 47.912 208.695 48.5529 209.123 49.1939C209.551 49.6212 210.194 49.8348 210.836 49.4075C212.763 47.6983 213.834 45.7755 213.834 43.2117C213.834 36.5886 206.126 29.7518 205.698 29.3245C201.201 25.2652 198.846 21.2058 198.846 17.1465C198.846 12.2326 202.058 9.02783 202.058 9.02783L202.272 8.81418C212.977 -1.44098 229.891 11.378 230.105 11.378H230.32C230.534 11.378 244.665 20.1376 247.234 33.3838C248.304 38.725 247.876 42.5707 245.949 44.7072C244.022 46.6301 241.025 46.4164 240.811 46.4164C240.168 46.2028 239.74 46.2028 239.098 46.2028C237.599 45.5618 226.038 40.2206 218.33 43.8526C217.687 44.0663 217.473 44.7072 217.687 45.3482C217.901 45.9891 218.544 46.2028 219.186 45.9891C223.468 44.0663 229.035 45.3482 233.103 46.6301C228.821 47.6983 226.68 50.4758 226.252 50.6894C216.403 63.0811 203.342 57.3125 202.914 57.0989C188.783 51.9713 191.567 38.725 191.781 38.2978C193.065 31.2473 188.783 25.0515 188.141 24.4106C186 19.4966 185.572 16.2919 187.07 13.7281ZM272.498 281.003C268.002 276.089 260.08 270.321 247.234 270.321C244.451 270.321 241.453 270.534 238.456 271.175L236.957 271.389L237.599 272.884C237.599 273.098 240.168 278.439 245.307 283.781C252.158 290.831 260.508 294.677 269.501 294.677C272.284 294.677 275.282 294.249 278.279 293.608L279.564 293.395L279.135 292.113C278.921 291.686 277.209 286.344 272.498 281.003ZM269.501 292.113C261.151 292.113 253.443 288.694 247.02 282.071C243.594 278.653 241.453 275.235 240.382 273.312C242.738 272.884 244.879 272.884 247.02 272.884C256.654 272.884 264.576 276.303 270.571 282.712C273.783 286.131 275.496 289.763 276.138 291.472C273.997 291.899 271.642 292.113 269.501 292.113ZM217.687 27.188C219.4 28.0426 221.541 28.8972 222.612 27.6153C223.896 26.3334 222.612 23.9833 222.398 23.3423C222.184 22.7014 221.327 22.4877 220.899 22.915C220.257 23.1287 220.043 23.9833 220.471 24.4106C220.685 24.8379 220.899 25.4788 220.899 25.6925C220.685 25.6925 220.043 25.4788 218.758 24.8379C216.617 23.556 212.335 19.9239 213.191 17.7874V17.5738C213.191 17.5738 213.619 16.2919 215.118 15.651C216.617 15.01 220.685 15.2237 229.035 21.6331C230.748 23.1287 235.672 27.8289 234.602 30.82C234.173 32.5292 231.39 33.3838 227.108 33.8111C226.466 33.8111 226.037 34.4521 226.037 35.093C226.037 35.734 226.68 36.1613 227.108 36.1613C232.675 35.734 235.886 34.2384 236.743 31.6746C238.241 26.9744 231.176 20.7785 230.32 20.1376C223.254 14.5827 217.902 12.4462 214.262 13.7281C211.692 14.5827 211.05 16.7192 210.836 17.1465C209.337 22.0604 216.617 26.7607 217.687 27.188ZM121.768 142.559L126.479 160.932L140.61 123.757L121.768 142.559ZM225.181 65.2175C217.687 65.2175 210.836 67.7813 204.413 72.6953L203.342 73.5499L204.199 74.4044C204.627 74.8317 213.191 84.0187 227.322 84.0187C234.602 84.0187 242.095 81.4549 249.589 76.3273C250.66 76.1136 257.297 74.1908 263.934 69.4905C270.571 64.5766 278.279 55.817 277.851 40.8615V39.5796L276.566 39.7933C276.352 39.7933 269.501 40.6479 262.649 45.3482C256.654 49.6212 249.375 57.7398 248.09 72.9089C244.45 70.3451 235.672 65.2175 225.181 65.2175ZM227.322 81.6685C216.831 81.6685 209.551 75.9 206.982 73.7635C212.549 69.7042 218.758 67.5677 225.181 67.5677C235.458 67.5677 244.022 72.9089 247.234 75.259C240.597 79.532 233.959 81.6685 227.322 81.6685ZM263.72 47.271C268.43 44.0663 273.141 42.7844 275.282 42.3571C275.282 52.8259 270.999 61.3719 262.435 67.5677C257.511 71.1997 252.586 72.9089 250.231 73.7635C251.088 61.7992 255.584 53.0395 263.72 47.271ZM7.22245 158.796C11.0763 158.796 14.0738 155.805 14.0738 151.959C14.0738 148.113 11.0763 145.122 7.22245 145.122C3.36856 145.122 0.371094 148.113 0.371094 151.959C0.371094 155.805 3.36856 158.796 7.22245 158.796ZM7.22245 147.472C9.5776 147.472 11.5045 149.395 11.5045 151.745C11.5045 154.096 9.5776 156.018 7.22245 156.018C4.86729 156.018 2.94035 154.096 2.94035 151.745C2.94035 149.609 4.86729 147.472 7.22245 147.472ZM319.173 228.659C319.173 223.959 317.888 220.754 315.533 219.045C312.536 216.908 308.682 218.404 308.468 218.404C303.329 220.754 297.763 217.336 297.763 217.336C289.412 213.276 282.133 214.986 277.423 217.336C272.498 219.686 269.287 223.104 269.287 223.104C262.649 230.155 261.579 236.778 261.793 240.837C262.007 245.324 264.148 248.101 264.148 248.315C267.788 253.442 266.717 258.997 266.717 259.425C265.219 265.193 265.647 269.039 268.216 270.962C269.929 272.243 272.498 272.457 275.067 271.816C279.564 270.962 284.488 268.398 286.201 267.33C287.271 267.971 287.914 268.184 287.914 268.184C290.697 269.252 293.48 269.466 296.05 269.039C299.904 268.398 303.543 266.048 306.755 262.202C310.395 257.929 312.322 253.229 312.75 252.16C314.463 250.238 316.39 247.888 318.317 245.11C318.531 244.683 324.954 235.069 321.314 229.941C320.458 229.727 319.815 229.086 319.173 228.659ZM315.961 244.042C314.035 246.819 312.322 249.169 310.609 250.879L310.395 251.092C305.684 256.22 302.473 257.502 300.332 257.502C297.977 257.502 296.906 255.793 296.906 255.579V255.365C294.765 252.588 299.261 245.965 301.188 243.615C302.901 241.905 303.758 241.692 303.972 241.478C304.186 241.905 304.186 242.974 303.972 244.042C303.758 244.683 304.186 245.324 304.828 245.324C305.47 245.537 306.113 245.11 306.113 244.469C306.327 243.615 306.755 240.41 305.042 239.342C303.329 238.487 301.188 240.196 299.475 241.905C298.619 242.974 291.339 251.733 294.979 256.434C295.193 256.861 296.906 259.211 300.332 259.425C300.974 259.425 301.402 259.425 302.045 259.211C303.758 258.997 305.47 257.929 307.397 256.647C303.972 262.202 297.548 269.252 288.342 265.834C288.342 265.834 279.135 262.202 281.705 249.81C281.919 249.169 284.274 236.137 278.065 231.223C277.637 230.796 276.78 231.009 276.352 231.437C275.924 231.864 276.138 232.718 276.566 233.146C281.705 237.205 279.35 249.383 279.35 249.597C277.637 258.143 280.848 263.27 283.846 265.834C279.778 267.971 272.284 271.389 269.287 269.039C267.146 267.543 267.788 263.27 268.644 259.852C268.644 259.638 270.143 253.015 265.861 246.819C265.861 246.819 259.224 236.991 270.785 224.6C270.785 224.6 273.783 221.395 278.279 219.259C284.274 216.481 290.483 216.481 296.478 219.259C297.12 219.472 301.616 222.036 306.755 221.181C307.611 220.968 308.468 220.754 309.324 220.327C309.538 220.327 312.108 219.259 314.249 220.754C315.747 221.822 316.604 224.172 316.818 227.377C313.392 226.523 308.468 226.95 301.616 228.873C300.974 229.086 300.546 229.727 300.76 230.368C300.974 231.009 301.616 231.437 302.259 231.223C311.037 228.873 315.319 229.086 317.46 230.155C318.103 230.582 318.531 231.009 318.959 231.437C321.314 234.855 317.674 241.692 315.961 244.042ZM278.279 126.535C278.279 123.971 276.138 121.835 273.569 121.835C271 121.835 268.858 123.971 268.858 126.535C268.858 129.099 271 131.235 273.569 131.235C276.138 131.235 278.279 129.312 278.279 126.535ZM271.214 126.535C271.214 125.253 272.284 124.185 273.569 124.185C274.853 124.185 275.924 125.253 275.924 126.535C275.924 127.817 274.853 128.885 273.569 128.885C272.284 128.885 271.214 127.817 271.214 126.535ZM17.2854 97.2649C16.4289 101.965 17.0713 105.384 19.2123 107.52C21.9957 110.297 26.0637 109.443 26.2778 109.443C31.8445 108.161 36.983 112.434 36.983 112.434C41.9074 116.066 46.6177 117.134 50.8998 117.134C53.255 117.134 55.6101 116.707 57.5371 116.28C63.1038 114.784 66.7436 112.007 66.9577 112.007C75.0937 106.025 77.2347 99.8287 77.877 95.5557C78.3052 90.8554 77.0206 87.6507 76.8065 87.6507C74.0231 81.8822 76.1642 76.3273 76.3783 75.9C78.9475 70.3451 79.1616 66.2858 77.0206 63.9356C72.7385 59.449 61.3909 63.0811 58.1794 64.1493C57.323 63.2947 56.6806 62.8674 56.6806 62.8674C50.2575 59.0217 43.192 60.09 36.5548 65.4312C32.2727 69.0632 29.2752 73.3362 28.6329 74.4044C26.4919 76.1136 24.1367 78.0365 21.7816 80.6003C21.3534 81.0276 13.2174 89.3599 16.0007 95.3421C16.2148 95.983 16.6431 96.624 17.2854 97.2649ZM23.2803 82.3095C25.8496 79.7457 27.9906 77.8228 29.9175 76.3273L30.1317 76.1136C35.6984 71.8407 39.3382 71.1997 41.4792 71.627C43.8344 72.0543 44.6908 74.1908 44.6908 74.1908V74.4044C46.4036 77.6092 40.4087 83.5914 38.2676 85.3006C36.1266 86.7961 35.2702 86.7961 35.0561 86.7961C34.842 86.3688 35.2702 85.0869 35.4843 84.2323C35.6984 83.5914 35.4843 82.9504 34.842 82.7368C34.1996 82.5231 33.5573 82.7368 33.3432 83.3777C32.915 84.2323 31.8445 87.437 33.5573 88.7189C35.0561 90.0008 37.6253 88.7189 39.7664 87.2234C40.8369 86.3688 49.6152 78.8911 46.8318 73.3362C46.6177 72.9089 45.3331 70.1315 41.9074 69.4905C39.7664 69.0632 37.1971 69.4905 34.1996 70.9861C35.2702 69.9178 36.3407 68.6359 37.8394 67.5677C43.8344 62.6538 49.6152 62.0128 55.1819 65.2175C55.1819 65.2175 63.7461 70.5588 58.8217 82.5231C58.6076 83.1641 53.6832 95.983 59.0358 101.965C59.2499 102.179 59.6781 102.392 59.8922 102.392C60.1063 102.392 60.5345 102.392 60.7486 102.179C61.1768 101.752 61.3909 100.897 60.9627 100.47C56.6806 95.5557 61.1768 83.5914 61.1768 83.3777C64.6025 75.0454 62.2474 69.4905 59.6781 66.2858C64.1743 64.7902 72.3103 62.8674 75.0937 65.8585C77.0206 67.7813 75.5219 72.0543 74.0231 75.259C73.809 75.4727 71.2398 81.8822 74.4513 88.9326C74.6654 89.3599 79.3757 100.256 65.2448 110.511C65.0307 110.511 51.5421 120.766 38.2676 111.152C37.6253 110.725 32.0586 106.025 25.4213 107.52C25.2072 107.52 22.4239 107.947 20.711 106.238C19.4264 104.956 18.9982 102.392 19.4264 98.9741C21.7816 100.042 24.9931 100.47 29.0611 100.47C30.774 100.47 32.915 100.47 35.0561 100.256C35.6984 100.256 36.1266 99.615 36.1266 98.9741C36.1266 98.3331 35.4843 97.9058 34.842 97.9058C25.6355 98.7604 21.1393 97.6922 19.2123 96.1967C18.57 95.7694 18.1418 95.1284 17.9277 94.7011C16.2148 90.6418 21.1393 84.446 23.2803 82.3095ZM88.3681 40.0069L88.5822 40.2206C97.7887 45.5618 101.643 55.817 101.643 56.0306C105.497 64.7902 112.348 66.7131 117.272 66.9267C117.486 66.9267 117.915 66.9267 118.129 66.9267C123.053 66.9267 127.121 65.2175 127.121 65.2175C135.257 62.2264 140.181 57.7398 142.108 51.9713C144.678 44.2799 140.61 37.2295 140.181 36.5886C135.685 27.6153 137.826 17.7874 137.826 17.5738C140.181 6.89133 131.831 3.6866 131.617 3.47295C122.839 0.481864 117.486 7.10499 117.486 7.31863C117.486 7.31863 117.486 7.31864 117.486 7.53228C116.844 7.10499 115.988 6.67769 115.131 6.46404C114.489 6.25039 107.638 3.47295 99.5016 10.9507C98.8593 10.9507 98.4311 11.1643 97.7887 11.378C94.7913 12.2326 92.4361 14.3691 90.7233 18.0011C90.7233 18.0011 90.5092 18.4284 90.2951 19.0693C90.081 19.0693 89.8669 19.0693 89.6528 19.0693C85.3707 20.7785 78.0911 26.1198 81.0886 34.0248C81.5168 34.0248 83.2296 38.2978 88.3681 40.0069ZM130.119 61.3719C128.834 62.2265 127.763 62.6537 126.479 63.081C125.836 63.2947 110.421 69.4905 103.998 55.176C103.784 54.3214 100.786 46.6301 93.7208 40.8615C95.6477 40.8615 97.7887 40.6479 100.144 39.7933C101 39.5797 119.413 35.734 128.406 42.7844C128.406 42.7844 133.972 47.271 134.401 53.0395C134.187 56.0306 132.902 58.8081 130.119 61.3719ZM93.2926 18.8557C94.5772 16.0782 96.5041 14.1554 98.8593 13.5145C99.2875 13.5145 99.5016 13.3008 99.9298 13.3008C100.144 13.5145 100.572 13.3008 100.786 13.3008C105.282 13.0872 109.779 16.2919 109.779 16.2919C110.421 16.7192 111.063 16.5055 111.491 16.0782C111.92 15.4373 111.706 14.7964 111.277 14.3691C111.063 14.1554 107.638 12.0189 103.355 11.1643C109.565 6.46404 114.275 8.38688 114.489 8.38688C117.272 9.45512 119.199 11.1643 119.842 13.0872C120.698 15.8646 119.199 18.642 119.199 18.642C111.706 30.1791 99.7157 27.6153 98.6452 27.4016C95.8618 26.5471 94.149 25.2652 93.2926 23.3423C92.4361 21.2058 93.0784 19.0693 93.2926 18.8557ZM90.5092 21.4195C90.5092 22.2741 90.7233 23.3423 91.1515 24.4106C92.222 26.7607 94.5772 28.6835 98.0028 29.7518C98.0028 29.7518 99.9298 30.1791 102.499 30.1791C103.57 30.1791 105.068 30.1791 106.353 29.7518C110.635 29.1108 116.63 26.7607 121.126 19.7103C121.126 19.4966 123.267 16.0782 122.197 12.2326C121.768 10.9507 120.912 9.66877 119.627 8.60053C119.842 8.38688 123.91 3.2593 131.189 5.60944C131.617 5.82309 136.114 7.74593 136.114 13.5145C135.899 14.7964 133.544 24.6242 127.549 26.5471C126.907 26.7607 126.693 27.4016 126.907 28.0426C127.121 28.4699 127.549 28.8972 127.978 28.8972C128.192 28.8972 128.192 28.8972 128.406 28.8972C131.617 27.8289 133.758 25.2652 135.471 22.4877C135.471 26.5471 135.899 32.1019 138.683 37.4432C138.683 37.4432 142.751 44.0663 140.396 50.903C139.539 53.4668 138.04 55.6033 135.685 57.7398C136.328 56.0306 136.756 54.3214 136.756 52.6122C136.542 45.7755 130.119 40.8615 129.904 40.6479C120.056 32.9565 100.572 37.0159 99.7157 37.2295C87.2976 40.6479 84.3001 33.1702 84.086 32.7429C81.0886 26.3334 88.5822 22.2741 90.5092 21.4195ZM193.494 241.478L185.358 255.365L193.494 263.484V241.478ZM193.494 235.71V223.959L168.015 228.018L165.446 235.496L183.217 253.229L193.494 235.71ZM162.877 75.259C169.942 70.7724 178.506 61.7991 179.791 43.8526L180.005 42.1434V41.7161C180.005 41.5025 180.861 33.8111 178.506 25.0515C176.151 16.7192 170.37 5.82309 156.025 0.695513C155.597 0.481864 155.169 0.481863 154.955 0.268214L153.242 0.0545654L152.814 1.33646C152.814 1.55011 151.101 8.60053 153.242 17.3601C155.169 25.2652 161.164 36.1613 177.436 42.7844C175.509 43.2117 168.872 44.9209 162.234 49.4075C154.955 54.3214 146.391 63.5083 146.176 79.3184V80.6003H147.461C147.889 80.6003 155.169 80.173 162.877 75.259ZM177.436 40.0069C165.874 34.8794 158.594 27.188 155.811 16.9328C154.312 10.9507 154.741 5.82309 155.169 3.47295C165.874 7.31863 172.725 15.01 175.723 25.9061C177.436 31.8883 177.436 37.2295 177.436 40.0069ZM163.733 51.544C169.086 47.912 174.438 46.2028 177.007 45.5618C175.723 58.1671 170.584 67.354 161.592 73.1226C156.453 76.3273 151.315 77.6092 148.96 78.0365C149.388 66.7131 154.312 57.9535 163.733 51.544ZM160.093 145.55L156.453 111.579L154.098 110.298L145.962 118.416L134.829 147.9L160.093 145.55ZM245.307 294.677L245.093 294.463C236.1 289.335 232.461 279.294 232.461 279.294C228.821 270.962 222.184 268.825 217.259 268.825C212.121 268.611 207.839 270.321 207.624 270.321C199.917 273.312 194.992 277.585 193.065 283.14C190.496 290.617 194.35 297.454 194.778 298.095C199.06 306.855 197.133 316.469 197.133 316.469C194.992 326.724 203.128 329.929 203.128 330.142C204.627 330.57 206.126 330.783 207.41 330.783C213.405 330.783 216.831 326.51 216.831 326.297C216.831 326.297 216.831 326.297 216.831 326.083C217.473 326.51 218.33 326.938 219.186 327.151C219.4 327.151 220.899 327.792 223.04 327.792C225.823 327.792 229.891 326.938 234.388 322.665C235.03 322.665 235.458 322.451 236.1 322.237C239.098 321.383 241.453 319.246 242.952 315.828C242.952 315.828 243.166 315.401 243.38 314.76H243.594C243.808 314.76 243.808 314.76 244.022 314.76C248.09 313.05 255.37 307.923 252.158 300.232C251.944 300.445 250.445 296.386 245.307 294.677ZM204.841 273.953C205.055 273.739 205.055 273.953 204.841 273.953C206.126 273.312 207.196 272.671 208.481 272.243C209.123 272.03 224.111 266.048 230.32 279.935C230.534 280.576 233.531 288.267 240.382 293.822C238.67 293.822 236.529 294.036 234.173 294.677C233.317 294.89 215.546 298.522 206.982 291.686C206.982 291.686 201.63 287.413 201.201 281.858C200.987 279.08 202.272 276.516 204.841 273.953ZM240.597 315.187C239.312 317.964 237.599 319.674 235.244 320.315C234.816 320.315 234.602 320.528 234.173 320.528C233.959 320.528 233.531 320.528 233.317 320.528C229.035 320.742 224.539 317.751 224.539 317.751C224.111 317.323 223.254 317.537 223.04 317.964C222.612 318.392 222.826 319.246 223.254 319.46C223.468 319.674 226.894 321.81 230.962 322.451C224.967 326.938 220.471 325.015 220.257 324.801C217.473 323.733 215.76 322.237 215.118 320.315C214.262 317.537 215.76 314.973 215.76 314.973C220.685 307.496 227.536 306 231.818 306C233.959 306 235.244 306.214 235.672 306.427C238.241 307.282 239.954 308.564 240.811 310.273C241.453 312.837 240.811 314.973 240.597 315.187ZM243.38 312.623C243.38 311.769 243.166 310.7 242.738 309.632C241.667 307.282 239.526 305.573 236.1 304.504C235.886 304.504 232.461 303.65 227.964 304.291C223.896 304.932 217.902 307.282 213.619 313.905C213.619 314.119 211.478 317.537 212.763 321.169C213.191 322.451 214.048 323.733 215.118 324.588C215.118 324.588 211.05 329.715 203.985 327.365C203.556 327.151 199.274 325.228 199.06 319.674C199.274 318.392 201.63 308.991 207.41 307.068C208.053 306.855 208.267 306.214 208.053 305.573C207.839 304.932 207.196 304.718 206.554 304.932C203.557 306 201.415 308.564 199.703 311.128C199.703 307.282 199.274 301.941 196.705 296.6C196.705 296.6 192.851 290.19 195.206 283.567C196.063 281.217 197.562 278.867 199.917 276.944C199.274 278.439 198.846 280.148 199.06 281.858C199.274 288.481 205.483 293.181 205.698 293.395C215.332 300.872 234.173 297.027 234.816 296.813C246.806 293.395 249.803 300.659 250.017 301.086C252.372 307.923 245.093 311.769 243.38 312.623ZM178.934 291.899L178.72 291.472C178.72 291.258 177.007 284.208 172.083 277.157C167.373 270.534 158.809 262.843 144.464 262.843C144.035 262.843 143.607 262.843 143.393 262.843H142.108L142.323 264.125C142.323 264.338 143.179 271.175 147.889 278.012C152.171 284.422 160.95 292.113 177.436 292.754C175.937 293.822 170.584 297.454 166.088 303.436C161.164 310.059 156.453 320.956 161.592 334.843L162.02 336.125L163.091 335.697C163.305 335.484 169.514 332.92 174.652 326.297C179.363 320.101 184.073 309.418 179.363 293.395L178.934 291.899ZM149.602 276.944C146.391 272.244 145.106 267.543 144.678 265.193C155.383 265.193 163.733 269.68 170.156 278.439C173.582 283.14 175.295 288.054 176.151 290.404C164.161 289.763 155.169 285.276 149.602 276.944ZM172.725 324.801C169.3 329.288 165.018 332.065 163.091 333.133C159.879 323.092 161.378 313.691 167.587 305.145C171.013 300.232 175.295 297.027 177.436 295.531C180.433 307.068 178.72 316.896 172.725 324.801ZM169.3 215.84L123.91 194.048L163.091 233.146L169.3 215.84ZM117.915 245.11C121.768 248.956 128.62 253.442 138.469 254.083C143.607 254.297 149.174 253.656 154.955 251.733L156.453 251.306L155.597 250.024C155.169 249.383 144.892 234 127.335 232.932C122.411 232.718 117.486 233.573 112.348 235.496L111.063 235.923L111.706 237.205C111.706 237.205 113.847 241.264 117.915 245.11ZM127.121 235.282C140.61 236.137 149.816 246.392 152.6 250.024C147.675 251.52 142.965 252.16 138.683 251.947C124.124 251.092 116.63 240.837 114.489 237.419C118.771 235.71 123.053 235.069 127.121 235.282ZM178.292 190.63L163.305 175.674L151.101 203.876L170.156 213.063L178.292 190.63ZM193.494 205.799L180.647 192.98L169.3 224.813L193.494 220.968V205.799ZM80.8745 141.704C80.8745 145.977 84.3002 149.395 88.5822 149.395C92.8643 149.395 96.29 145.977 96.29 141.704C96.29 137.431 92.8643 134.013 88.5822 134.013C84.3002 134.013 80.8745 137.431 80.8745 141.704ZM93.5067 141.704C93.5067 144.481 91.1515 146.831 88.3681 146.831C85.5848 146.831 83.2296 144.481 83.2296 141.704C83.2296 138.926 85.5848 136.576 88.3681 136.576C91.3656 136.576 93.5067 138.926 93.5067 141.704ZM67.1718 206.012C69.741 206.012 71.8821 203.876 71.8821 201.312C71.8821 198.748 69.741 196.612 67.1718 196.612C64.6025 196.612 62.4615 198.748 62.4615 201.312C62.4615 203.876 64.6025 206.012 67.1718 206.012ZM67.1718 198.962C68.4564 198.962 69.5269 200.03 69.5269 201.312C69.5269 202.594 68.4564 203.662 67.1718 203.662C65.8871 203.662 64.8166 202.594 64.8166 201.312C64.8166 200.03 66.1012 198.962 67.1718 198.962ZM312.322 186.357C302.259 186.357 293.695 190.416 286.843 198.321L285.987 199.389L287.057 200.244C287.271 200.457 294.765 205.799 305.47 205.799C315.105 205.799 323.883 201.526 332.019 193.193L333.09 192.125L331.805 191.27C331.591 191.057 323.027 186.357 312.322 186.357ZM305.47 203.235C297.763 203.235 291.768 200.244 289.412 198.748C295.622 192.125 303.329 188.707 312.108 188.707C319.815 188.707 326.453 191.271 329.236 192.552C321.956 199.603 314.035 203.235 305.47 203.235ZM220.257 102.179C219.828 97.0513 218.116 91.71 215.332 86.3688L214.69 85.0869L213.619 86.1552C212.977 86.5825 199.274 98.9741 200.987 116.707C201.415 121.407 202.914 126.108 205.483 130.594C204.841 132.303 202.914 138.072 203.556 145.122C204.199 152.814 208.053 163.71 222.398 172.256L223.682 173.11L224.111 171.615C224.111 171.401 226.252 164.778 225.395 156.232C224.753 149.823 222.612 141.918 215.546 135.081C224.753 137.858 232.675 135.935 238.456 133.372C246.592 129.74 251.516 124.612 251.73 124.398L252.801 123.33L251.516 122.689C236.743 114.784 225.181 116.921 218.116 120.339C217.259 120.766 216.617 120.98 215.975 121.407C218.758 116.921 221.113 110.298 220.257 102.179ZM223.04 156.446C223.468 162.001 222.826 166.915 222.184 169.265C212.335 162.855 206.768 154.523 205.912 144.695C205.269 138.926 206.554 134.013 207.41 131.876C216.831 137.431 222.184 145.55 223.04 156.446ZM219.4 122.262C228.393 117.989 238.456 118.63 248.947 123.971C247.02 125.68 242.952 129.099 237.385 131.449C227.75 135.722 218.116 135.081 209.123 129.953C209.123 129.953 209.123 129.953 209.337 129.74C209.98 129.099 210.836 128.458 211.692 127.389C213.619 125.68 216.189 123.757 219.4 122.262ZM209.98 125.894C209.123 126.748 208.267 127.603 207.839 128.03C207.624 128.244 207.41 128.244 207.41 128.458C205.269 124.398 203.985 120.339 203.556 116.28C202.272 102.82 211.05 92.351 214.262 88.9326C216.403 93.6329 217.687 98.1195 218.116 102.392C218.972 113.716 213.834 121.621 209.98 125.894ZM331.591 164.351C331.591 157.728 326.024 152.173 319.387 152.173C312.75 152.173 307.183 157.728 307.183 164.351C307.183 170.974 312.75 176.529 319.387 176.529C326.238 176.529 331.591 170.974 331.591 164.351ZM309.752 164.351C309.752 159.009 314.035 154.736 319.387 154.736C324.74 154.736 329.022 159.009 329.022 164.351C329.022 169.692 324.74 173.965 319.387 173.965C314.249 173.965 309.752 169.692 309.752 164.351ZM242.309 100.897C242.309 97.0513 239.312 94.0602 235.458 94.0602C231.604 94.0602 228.607 97.0513 228.607 100.897C228.607 104.743 231.604 107.734 235.458 107.734C239.312 107.734 242.309 104.529 242.309 100.897ZM231.176 100.897C231.176 98.5468 233.103 96.624 235.458 96.624C237.813 96.624 239.74 98.5468 239.74 100.897C239.74 103.247 237.813 105.17 235.458 105.17C233.103 105.17 231.176 103.247 231.176 100.897ZM201.201 163.069C201.201 157.728 196.705 153.241 191.353 153.241C186 153.241 181.504 157.728 181.504 163.069C181.504 168.41 186 172.897 191.353 172.897C196.705 172.897 201.201 168.41 201.201 163.069ZM191.138 170.333C187.07 170.333 183.645 167.128 183.645 162.855C183.645 158.582 186.856 155.377 191.138 155.377C195.206 155.377 198.632 158.582 198.632 162.855C198.632 167.128 195.206 170.333 191.138 170.333ZM30.3458 208.149C35.6984 208.149 41.2651 206.867 46.8318 204.517L48.3306 203.876L47.4741 202.594C47.0459 201.953 35.9125 187.638 18.3559 187.638C13.4315 187.638 8.29297 188.92 3.36856 191.27L2.29804 191.911L2.94035 192.98C3.15446 193.834 11.7186 208.149 30.3458 208.149ZM5.50961 192.98C9.7917 191.057 14.0738 190.202 18.3559 190.202C31.8445 190.202 41.4792 199.603 44.4767 203.021C39.5523 204.944 34.842 205.799 30.3458 205.799C16.0007 205.799 7.86476 196.398 5.50961 192.98ZM308.04 124.612C302.901 123.971 297.12 124.612 291.125 126.321L289.627 126.748L290.483 128.03C290.911 128.671 300.332 144.268 317.674 146.191C322.599 146.831 327.737 145.977 333.09 144.268L334.374 143.84L333.946 142.772C333.518 141.918 326.453 126.748 308.04 124.612ZM317.888 143.84C304.614 142.345 296.05 131.876 293.266 128.244C298.405 126.962 303.115 126.535 307.611 126.962C321.742 128.458 328.808 138.926 330.735 142.559C326.453 143.84 322.171 144.268 317.888 143.84Z" fill="white"/>
</svg>
