<svg width="40" height="41" viewBox="0 0 40 41" fill="none" xmlns="http://www.w3.org/2000/svg">
<path d="M20 12.5L30.6667 17.8333V39.1667H9.33333V17.8333L20 12.5ZM20 12.5V0.5M0 39.1667H40M4 39.1667V23.1667H9.33333M36 39.1667V23.1667H30.6667M17.3333 39.1667V31.1667H22.6667V39.1667M20 1.83333H28V7.16667H20M20 25.8333C18.5272 25.8333 17.3333 24.6394 17.3333 23.1667C17.3333 21.6939 18.5272 20.5 20 20.5C21.4728 20.5 22.6667 21.6939 22.6667 23.1667C22.6667 24.6394 21.4728 25.8333 20 25.8333Z" stroke="#F68293" stroke-width="2"/>
</svg>
