<svg width="60" height="59" viewBox="0 0 60 59" fill="none" xmlns="http://www.w3.org/2000/svg">
<path d="M9.55516 36.4684C9.55516 36.4684 14.123 38.4463 15.7011 42.6631C15.8491 42.9195 16.5935 45.3956 18.7902 47.7169C20.9128 49.91 24.6358 52.2047 30.7565 51.2349C31.0874 51.2148 33.7896 50.8512 36.6159 49.2194C39.4423 47.5876 43.0353 44.3167 43.9875 37.9552C44.042 37.7529 44.4692 33.7457 49.9432 31.9528C50.0717 31.8786 52.7347 30.8539 53.3686 28.0949C54.0221 25.6664 52.8532 22.7517 49.8619 19.3508C43.3808 11.9822 31.867 11.6215 30.9286 11.4796C30.3952 11.4457 26.7155 11.0062 22.5806 11.8551C16.865 12.9329 13.124 15.9474 11.7974 20.4738C10.3843 21.2897 4.29164 24.9782 4.2345 29.6263C4.31696 32.1427 5.9802 34.4301 9.55516 36.4684ZM5.8893 29.5256C5.91576 26.6045 9.34537 23.9406 11.3814 22.4233C11.2767 24.0221 11.468 26.1337 12.7263 28.3131C14.3546 31.1335 17.5246 33.0638 22.1623 33.9758C22.1623 33.9758 28.7508 35.2998 30.7492 38.7612C31.3413 39.7868 31.474 40.9067 30.9448 42.0669C30.8358 42.4716 30.9294 42.9304 31.4084 43.1666C31.8134 43.2747 32.2728 43.1803 32.5102 42.7014C33.0743 41.0083 33.0505 39.4836 32.1624 37.9453C29.8679 33.9711 22.8744 32.539 22.4694 32.431C18.3653 31.5528 15.5458 29.933 14.1395 27.4972C12.4371 24.5486 13.254 21.5131 13.254 21.5131L13.3084 21.3107C16.1793 11.4485 30.7695 13.2807 30.8979 13.2066L31.0264 13.1324C31.1549 13.0582 42.6686 13.4189 48.7992 20.4771C51.292 23.3112 52.3673 25.7671 51.9512 27.7167C51.4611 29.538 49.5885 30.4482 49.46 30.5224C49.0006 30.6167 48.7436 30.7651 48.3582 30.9876C47.2369 31.1222 38.449 31.9226 35.0823 36.7722C34.7709 37.1229 34.8645 37.5817 35.215 37.8921C35.5655 38.2026 36.0249 38.1082 36.3363 37.7575C38.2396 35.1203 42.024 33.961 44.909 33.3209C42.7097 35.4453 42.3872 37.8536 42.2042 38.1302C40.5874 48.9776 30.7522 50.0408 30.4213 50.061C20.1658 51.8796 17.247 42.9671 17.2274 42.6365C15.5558 37.9609 10.8399 35.7267 10.2324 35.5646C7.24535 33.3578 5.87818 31.5831 5.8893 29.5256ZM28.9237 26.9953C30.2475 26.9147 31.8283 26.6858 32.0266 25.5457C32.3533 24.3315 30.7683 23.3663 30.4178 23.0559C30.0673 22.7455 29.4794 22.914 29.3705 23.3187C29.0591 23.6694 29.2267 24.2564 29.6316 24.3645C29.9081 24.5467 30.2587 24.8571 30.3327 24.9853C30.2042 25.0595 29.7448 25.1538 28.7519 25.2142C27.0231 25.1868 23.1954 24.4909 22.9691 22.9122L22.8951 22.784C22.8951 22.784 22.708 21.8665 23.3852 20.9627C24.0625 20.0588 26.5775 18.7778 33.8083 19.731C35.3542 20.035 39.9374 21.1493 40.3312 23.315C40.6664 24.4889 39.2923 25.966 36.8709 27.7058C36.4855 27.9283 36.4506 28.4613 36.6726 28.8459C36.8947 29.2305 37.4281 29.2643 37.6851 29.116C40.8773 26.9311 42.2863 24.9211 41.912 23.086C41.183 19.7465 34.797 18.4764 34.061 18.3885C27.8971 17.5031 23.9451 18.0754 22.2052 20.1056C20.9596 21.5084 21.3143 23.0129 21.3339 23.3435C22.1369 26.8113 28.1333 27.1098 28.9237 26.9953Z" fill="#F68293"/>
</svg>
