<svg width="142" height="28" viewBox="0 0 142 28" fill="none" xmlns="http://www.w3.org/2000/svg">
<path d="M38.3 4.70113L41.7 9.40369C41.4 9.50374 40.9 9.50374 40.4 9.50374C39.8 9.50374 39.4 9.50374 39.1 9.40369L35.8 5.0013V9.40369C35.1 9.50374 34.3 9.50374 33.5 9.40369V0.198687C34.2 0.0986328 35 0.0986328 35.8 0.198687V4.30092L38.8 0.198687C39.1 0.0986328 39.6 0.0986328 40.1 0.0986328C40.7 0.0986328 41.1 0.0986328 41.4 0.198687L38.3 4.70113Z" fill="#1C1C1C"/>
<path d="M48.5992 0C49.9992 0 51.1992 0.500272 52.0992 1.40076C52.9992 2.30125 53.4992 3.5019 53.4992 4.80261C53.4992 6.10332 52.9992 7.30397 52.0992 8.20446C51.1992 9.10495 49.9992 9.60522 48.5992 9.60522C47.1992 9.60522 45.9992 9.10495 45.0992 8.20446C44.1992 7.30397 43.6992 6.10332 43.6992 4.80261C43.6992 3.5019 44.1992 2.30125 45.0992 1.40076C45.9992 0.500272 47.1992 0 48.5992 0ZM48.5992 1.90103C47.8992 1.90103 47.2992 2.2012 46.7992 2.70147C46.2992 3.20174 45.9992 3.90212 45.9992 4.80261C45.9992 5.7031 46.2992 6.40348 46.6992 6.90375C47.1992 7.40402 47.7992 7.70419 48.4992 7.70419C49.1992 7.70419 49.7992 7.40402 50.2992 6.90375C50.7992 6.40348 50.9992 5.7031 50.9992 4.80261C50.9992 3.90212 50.6992 3.20174 50.2992 2.70147C49.8992 2.10114 49.2992 1.90103 48.5992 1.90103Z" fill="#1C1C1C"/>
<path d="M56.5 0.200195H60.1C61.1 0.200195 62 0.500358 62.6 1.00063C63.2 1.5009 63.6 2.30134 63.6 3.20183C63.6 4.10232 63.3 4.90275 62.6 5.40302C61.9 5.90329 61.1 6.20346 60.1 6.20346H58.8V9.20509C58.1 9.30514 57.3 9.30514 56.5 9.20509V0.200195ZM58.7 4.50253H60C60.7 4.50253 61.2 4.10232 61.2 3.30188C61.2 2.50145 60.7 2.10123 60 2.10123H58.7V4.50253Z" fill="#1C1C1C"/>
<path d="M74.8004 0.200195V9.4052C74.1004 9.50525 73.3004 9.50525 72.5004 9.4052V2.10123H68.7004V9.4052C68.0004 9.50525 67.2004 9.50525 66.4004 9.4052V0.200195H74.8004Z" fill="#1C1C1C"/>
<path d="M82.6988 0C84.0988 0 85.2988 0.500272 86.1988 1.40076C87.0988 2.30125 87.5988 3.5019 87.5988 4.80261C87.5988 6.10332 87.0988 7.30397 86.1988 8.20446C85.2988 9.10495 84.0988 9.60522 82.6988 9.60522C81.2988 9.60522 80.0988 9.10495 79.1988 8.20446C78.2988 7.30397 77.7988 6.10332 77.7988 4.80261C77.7988 3.5019 78.2988 2.30125 79.1988 1.40076C80.0988 0.500272 81.2988 0 82.6988 0ZM82.6988 1.90103C81.9988 1.90103 81.3988 2.2012 80.8988 2.70147C80.3988 3.20174 80.1988 3.90212 80.1988 4.80261C80.1988 5.7031 80.4988 6.40348 80.8988 6.90375C81.3988 7.40402 81.9988 7.70419 82.6988 7.70419C83.3988 7.70419 83.9988 7.40402 84.4988 6.90375C84.9988 6.40348 85.1988 5.7031 85.1988 4.80261C85.1988 3.90212 84.9988 3.20174 84.4988 2.70147C84.0988 2.10114 83.3988 1.90103 82.6988 1.90103Z" fill="#1C1C1C"/>
<path d="M90.5996 0.200195H94.1996C95.1996 0.200195 96.0996 0.500358 96.6996 1.00063C97.2996 1.5009 97.6996 2.30134 97.6996 3.20183C97.6996 4.10232 97.3996 4.90275 96.6996 5.40302C95.9996 5.90329 95.1996 6.20346 94.1996 6.20346H92.8996V9.20509C92.1996 9.30514 91.3996 9.30514 90.5996 9.20509V0.200195ZM92.8996 4.50253H94.1996C94.8996 4.50253 95.3996 4.10232 95.3996 3.30188C95.3996 2.50145 94.8996 2.10123 94.1996 2.10123H92.8996V4.50253Z" fill="#1C1C1C"/>
<path d="M108.499 9.40504C107.699 9.5051 106.999 9.5051 106.199 9.40504L105.599 7.70412H102.199L101.599 9.40504C100.799 9.5051 100.099 9.5051 99.2988 9.40504L102.999 0.200041C103.599 0.0999864 104.199 0.0999864 104.899 0.200041L108.499 9.40504ZM102.799 5.70303H104.699L103.699 3.10162L102.799 5.70303Z" fill="#1C1C1C"/>
<path d="M120.499 7.50401V10.8058C119.799 10.9059 118.999 10.9059 118.199 10.8058V9.40504H111.299V0.200041C111.999 0.0999864 112.799 0.0999864 113.599 0.200041V7.50401H117.099V0.200041C117.799 0.0999864 118.599 0.0999864 119.399 0.200041V7.50401H120.499Z" fill="#1C1C1C"/>
<path d="M131.599 9.40504C130.899 9.5051 130.099 9.5051 129.299 9.40504V4.00211L124.999 9.40504C124.399 9.5051 123.799 9.5051 123.199 9.40504V0.200041C123.899 0.0999864 124.699 0.0999864 125.499 0.200041V5.60298L129.799 0.200041C130.399 0.0999864 130.999 0.0999864 131.599 0.200041V9.40504Z" fill="#1C1C1C"/>
<path d="M142 0.200195V9.4052C141.3 9.50525 140.5 9.50525 139.7 9.4052V6.30351H138.8L136.8 9.4052C136.5 9.50525 136.1 9.50525 135.6 9.50525C135.1 9.50525 134.7 9.50525 134.4 9.4052L136.6 6.00335C135.5 5.50308 134.9 4.50253 134.9 3.30188C134.9 2.40139 135.2 1.70101 135.8 1.10068C136.4 0.500358 137.3 0.30025 138.3 0.30025H142V0.200195ZM139.7 2.10123H138.3C137.6 2.10123 137.1 2.50145 137.1 3.30188C137.1 4.10232 137.6 4.50253 138.3 4.50253H139.7V2.10123Z" fill="#1C1C1C"/>
<path d="M44.6992 22.8129C44.7992 23.013 44.8992 23.5133 44.7992 24.3137C44.7992 25.1141 44.6992 25.7145 44.6992 25.9146C43.4992 26.6149 42.0992 27.0152 40.4992 27.0152C38.0992 27.0152 36.1992 26.3148 34.7992 24.914C33.3992 23.5133 32.6992 21.8123 32.6992 19.7112C32.6992 17.6101 33.3992 15.9091 34.7992 14.5084C36.1992 13.1076 38.0992 12.4072 40.4992 12.4072C42.1992 12.4072 43.5992 12.8074 44.6992 13.5078C44.7992 13.7079 44.7992 14.3083 44.7992 15.1087C44.7992 15.9091 44.7992 16.4094 44.6992 16.6095C43.2992 15.709 41.8992 15.3088 40.5992 15.3088C39.2992 15.3088 38.1992 15.709 37.2992 16.5095C36.3992 17.3099 35.9992 18.4105 35.9992 19.7112C35.9992 21.0119 36.3992 22.1125 37.2992 22.9129C38.1992 23.7134 39.2992 24.1136 40.5992 24.1136C41.8992 24.2136 43.2992 23.7134 44.6992 22.8129Z" fill="#1C1C1C"/>
<path d="M60.2992 26.7149C59.1992 26.915 57.9992 26.915 56.8992 26.7149V18.5104L50.3992 26.7149C49.4992 26.915 48.5992 26.915 47.6992 26.7149V12.8073C48.7992 12.6072 49.9992 12.6072 51.0992 12.8073V21.0118L57.5992 12.8073C58.4992 12.6072 59.3992 12.6072 60.2992 12.8073V26.7149Z" fill="#1C1C1C"/>
<path d="M72.4988 18.2107V12.7077C73.5988 12.5076 74.7988 12.5076 75.8988 12.7077V26.6153C74.7988 26.8154 73.5988 26.8154 72.4988 26.6153V21.0122H66.6988V26.6153C65.5988 26.8154 64.3988 26.8154 63.2988 26.6153V12.8078C64.3988 12.6076 65.5988 12.6076 66.6988 12.8078V18.3107H72.4988V18.2107Z" fill="#1C1C1C"/>
<path d="M82.4 23.9137H88.7C88.9 24.8141 88.9 25.8147 88.7 26.8152H79V12.8076H88.7C88.9 13.8082 88.9 14.7087 88.7 15.7092H82.4V18.3106H88C88.2 19.3112 88.2 20.2116 88 21.2122H82.4V23.9137Z" fill="#1C1C1C"/>
<path d="M91 12.8076H96.5C98.1 12.8076 99.3 13.2078 100.3 14.1083C101.3 15.0088 101.8 16.1094 101.8 17.5102C101.8 18.9109 101.3 20.0115 100.3 20.912C99.3 21.8125 98.1 22.2127 96.5 22.2127H94.5V26.8152C93.4 27.0153 92.2 27.0153 91.1 26.8152V12.8076H91ZM94.5 19.3112H96.5C97.5 19.3112 98.3 18.7108 98.3 17.5102C98.3 16.3095 97.5 15.7092 96.5 15.7092H94.5V19.3112Z" fill="#1C1C1C"/>
<path d="M104.199 12.8076H113.399C113.599 13.8082 113.599 14.7087 113.399 15.7092H107.699V26.8152C106.599 27.0153 105.399 27.0153 104.299 26.8152V12.8076H104.199Z" fill="#1C1C1C"/>
<path d="M128.299 26.7149C127.199 26.915 125.999 26.915 124.899 26.7149V18.5104L118.399 26.7149C117.499 26.915 116.599 26.915 115.699 26.7149V12.8073C116.799 12.6072 117.999 12.6072 119.099 12.8073V21.0118L125.599 12.8073C126.499 12.6072 127.399 12.6072 128.299 12.8073V26.7149Z" fill="#1C1C1C"/>
<path d="M141.9 12.8076V26.7152C140.8 26.9153 139.6 26.9153 138.5 26.7152V22.0126H137.2L134.1 26.7152C133.6 26.8152 133 26.8152 132.2 26.8152C131.4 26.8152 130.8 26.8152 130.4 26.7152L133.8 21.5123C132.1 20.7119 131.1 19.3112 131.1 17.4101C131.1 16.0094 131.6 14.9088 132.5 14.1083C133.5 13.2078 134.7 12.8076 136.3 12.8076H141.9ZM138.5 15.6091H136.4C135.4 15.6091 134.6 16.2095 134.6 17.4101C134.6 18.6108 135.4 19.2111 136.4 19.2111H138.5V15.6091Z" fill="#1C1C1C"/>
<path d="M0 0.299805V26.8142H26.5V0.299805H0ZM23.1 23.4124H3.30001V3.6016H23.1V23.4124ZM16.4 22.3118L7.60001 13.507L16.4 4.7022V9.40475L12.3 13.507L16.4 17.6092V22.3118Z" fill="#1C1C1C"/>
</svg>
